<svg width="173" height="48" viewBox="0 0 173 48" fill="none" xmlns="http://www.w3.org/2000/svg">
<rect x="0.5" y="0.5" width="172" height="47" rx="7.5" fill="white"/>
<path d="M40.25 34.75H35.75V27.5H34.8C34.22 27.5 33.75 27.03 33.75 26.45V24.55C33.75 23.97 34.22 23.5 34.8 23.5H35.75V21C35.75 18.93 37.43 17.25 39.5 17.25H42.2C42.78 17.25 43.25 17.72 43.25 18.3V20.7C43.25 21.28 42.78 21.75 42.2 21.75H40.25V23.5H42.13C42.45 23.5 42.74 23.64 42.94 23.88C43.14 24.12 43.22 24.44 43.16 24.75L42.78 26.65C42.68 27.14 42.25 27.49 41.75 27.49H40.25V34.75ZM37.25 33.25H38.75V26H41.39L41.59 25H38.76V21.3C38.76 20.72 39.23 20.25 39.81 20.25H41.76V18.75H39.5C38.26 18.75 37.25 19.76 37.25 21V25H35.25V26H37.25V33.25Z" fill="#36518A"/>
<path d="M40.5 34.75H34.5C29.07 34.75 26.75 32.43 26.75 27V21C26.75 15.57 29.07 13.25 34.5 13.25H40.5C45.93 13.25 48.25 15.57 48.25 21V27C48.25 32.43 45.93 34.75 40.5 34.75ZM34.5 14.75C29.89 14.75 28.25 16.39 28.25 21V27C28.25 31.61 29.89 33.25 34.5 33.25H40.5C45.11 33.25 46.75 31.61 46.75 27V21C46.75 16.39 45.11 14.75 40.5 14.75H34.5Z" fill="#36518A"/>
<path d="M58.588 29.5V18.3H65.82V19.948H60.636V23.084H64.828V24.7H60.636V29.5H58.588ZM66.1018 29.5L70.1978 18.3H72.5018L76.5978 29.5H74.4218L73.5258 26.908H69.1578L68.2458 29.5H66.1018ZM69.7178 25.308H72.9658L71.3338 20.652L69.7178 25.308ZM83.1119 29.692C81.9812 29.692 81.0105 29.452 80.1999 28.972C79.3892 28.4813 78.7652 27.804 78.3279 26.94C77.8905 26.0653 77.6719 25.0573 77.6719 23.916C77.6719 22.7747 77.8905 21.7667 78.3279 20.892C78.7652 20.0173 79.3892 19.3347 80.1999 18.844C81.0105 18.3533 81.9812 18.108 83.1119 18.108C84.4559 18.108 85.5545 18.444 86.4079 19.116C87.2719 19.7773 87.8105 20.7107 88.0239 21.916H85.7679C85.6292 21.308 85.3305 20.8333 84.8719 20.492C84.4239 20.14 83.8265 19.964 83.0799 19.964C82.0452 19.964 81.2345 20.316 80.6479 21.02C80.0612 21.724 79.7679 22.6893 79.7679 23.916C79.7679 25.1427 80.0612 26.108 80.6479 26.812C81.2345 27.5053 82.0452 27.852 83.0799 27.852C83.8265 27.852 84.4239 27.692 84.8719 27.372C85.3305 27.0413 85.6292 26.588 85.7679 26.012H88.0239C87.8105 27.164 87.2719 28.0653 86.4079 28.716C85.5545 29.3667 84.4559 29.692 83.1119 29.692ZM90.4768 29.5V18.3H97.7888V19.948H92.5248V23.02H97.3088V24.62H92.5248V27.852H97.7888V29.5H90.4768ZM100.367 29.5V18.3H104.863C106.025 18.3 106.911 18.572 107.519 19.116C108.137 19.6493 108.447 20.3373 108.447 21.18C108.447 21.884 108.255 22.4493 107.871 22.876C107.497 23.292 107.039 23.5747 106.495 23.724C107.135 23.852 107.663 24.172 108.079 24.684C108.495 25.1853 108.703 25.772 108.703 26.444C108.703 27.3293 108.383 28.06 107.743 28.636C107.103 29.212 106.196 29.5 105.023 29.5H100.367ZM102.415 23.004H104.559C105.135 23.004 105.577 22.8707 105.887 22.604C106.196 22.3373 106.351 21.9587 106.351 21.468C106.351 20.9987 106.196 20.6307 105.887 20.364C105.588 20.0867 105.135 19.948 104.527 19.948H102.415V23.004ZM102.415 27.836H104.703C105.311 27.836 105.78 27.6973 106.111 27.42C106.452 27.132 106.623 26.732 106.623 26.22C106.623 25.6973 106.447 25.2867 106.095 24.988C105.743 24.6893 105.268 24.54 104.671 24.54H102.415V27.836ZM116.349 29.692C115.229 29.692 114.247 29.4467 113.405 28.956C112.573 28.4653 111.917 27.788 111.437 26.924C110.967 26.0493 110.733 25.0413 110.733 23.9C110.733 22.7587 110.967 21.756 111.437 20.892C111.917 20.0173 112.573 19.3347 113.405 18.844C114.247 18.3533 115.229 18.108 116.349 18.108C117.458 18.108 118.434 18.3533 119.277 18.844C120.119 19.3347 120.775 20.0173 121.245 20.892C121.714 21.756 121.949 22.7587 121.949 23.9C121.949 25.0413 121.714 26.0493 121.245 26.924C120.775 27.788 120.119 28.4653 119.277 28.956C118.434 29.4467 117.458 29.692 116.349 29.692ZM116.349 27.852C117.415 27.852 118.263 27.5 118.893 26.796C119.533 26.092 119.853 25.1267 119.853 23.9C119.853 22.6733 119.533 21.708 118.893 21.004C118.263 20.3 117.415 19.948 116.349 19.948C115.282 19.948 114.429 20.3 113.789 21.004C113.149 21.708 112.829 22.6733 112.829 23.9C112.829 25.1267 113.149 26.092 113.789 26.796C114.429 27.5 115.282 27.852 116.349 27.852ZM129.645 29.692C128.525 29.692 127.543 29.4467 126.701 28.956C125.869 28.4653 125.213 27.788 124.733 26.924C124.263 26.0493 124.029 25.0413 124.029 23.9C124.029 22.7587 124.263 21.756 124.733 20.892C125.213 20.0173 125.869 19.3347 126.701 18.844C127.543 18.3533 128.525 18.108 129.645 18.108C130.754 18.108 131.73 18.3533 132.573 18.844C133.415 19.3347 134.071 20.0173 134.541 20.892C135.01 21.756 135.245 22.7587 135.245 23.9C135.245 25.0413 135.01 26.0493 134.541 26.924C134.071 27.788 133.415 28.4653 132.573 28.956C131.73 29.4467 130.754 29.692 129.645 29.692ZM129.645 27.852C130.711 27.852 131.559 27.5 132.189 26.796C132.829 26.092 133.149 25.1267 133.149 23.9C133.149 22.6733 132.829 21.708 132.189 21.004C131.559 20.3 130.711 19.948 129.645 19.948C128.578 19.948 127.725 20.3 127.085 21.004C126.445 21.708 126.125 22.6733 126.125 23.9C126.125 25.1267 126.445 26.092 127.085 26.796C127.725 27.5 128.578 27.852 129.645 27.852ZM137.693 29.5V18.3H139.741V22.828L143.885 18.3H146.413L142.285 22.748L146.525 29.5H144.013L140.813 24.316L139.741 25.484V29.5H137.693Z" fill="#36518A"/>
<rect x="0.5" y="0.5" width="172" height="47" rx="7.5" stroke="#EFEFFD"/>
</svg>
