<svg width="174" height="48" viewBox="0 0 174 48" fill="none" xmlns="http://www.w3.org/2000/svg">
<rect x="0.5" y="0.5" width="173" height="47" rx="7.5" fill="white"/>
<path d="M47.1999 34.75C43.1599 34.75 39.5199 32.52 37.6599 28.93C37.6299 28.9 37.6099 28.86 37.5899 28.82C36.8299 27.3 36.4399 25.68 36.4399 24C36.4399 22.32 36.8299 20.7 37.5899 19.18C39.4299 15.52 43.1099 13.25 47.1899 13.25C49.9299 13.25 52.4199 14.22 54.3899 16.05C54.5399 16.19 54.6299 16.38 54.6299 16.59C54.6299 16.8 54.5499 16.99 54.3999 17.14L51.5799 19.9C51.2899 20.18 50.8399 20.19 50.5399 19.91C49.9099 19.32 48.8199 18.62 47.1899 18.62C45.1299 18.62 43.2399 19.86 42.3899 21.79C42.3199 21.95 42.2599 22.1 42.1999 22.27C42.0099 22.85 41.9199 23.44 41.9199 24.01C41.9199 24.58 42.0199 25.15 42.1999 25.72C42.1999 25.73 42.2099 25.74 42.2099 25.76C42.9299 27.94 44.9299 29.4 47.1899 29.4C48.3799 29.4 49.3999 29.11 50.2299 28.53C50.9899 28 51.4699 27.29 51.7299 26.65H47.1999C46.7899 26.65 46.4499 26.31 46.4499 25.9V22.19C46.4499 21.78 46.7899 21.44 47.1999 21.44H56.5899C56.9399 21.44 57.2399 21.68 57.3199 22.02C57.4799 22.72 57.5499 23.38 57.5499 24.23C57.5499 27.41 56.4099 30.22 54.3299 32.14C52.4799 33.84 50.0099 34.75 47.1999 34.75ZM38.8799 28.05C38.9099 28.09 38.9399 28.14 38.9599 28.19C40.5299 31.3 43.6899 33.25 47.1999 33.25C49.6299 33.25 51.7399 32.48 53.3099 31.03C55.0799 29.4 56.0499 26.98 56.0499 24.22C56.0499 23.72 56.0299 23.32 55.9699 22.93H47.9499V25.14H52.7099C52.9199 25.14 53.1299 25.23 53.2699 25.39C53.4099 25.55 53.4799 25.77 53.4499 25.98C53.3199 27.1 52.6199 28.68 51.0899 29.75C50.0099 30.5 48.6999 30.89 47.1899 30.89C44.2999 30.89 41.7399 29.03 40.7999 26.25C40.7999 26.24 40.7899 26.23 40.7899 26.22C40.5399 25.49 40.4199 24.75 40.4199 24.01C40.4199 23.28 40.5399 22.54 40.7799 21.8C40.8499 21.58 40.9299 21.38 41.0199 21.18C42.1199 18.71 44.5399 17.12 47.1899 17.12C48.8999 17.12 50.1599 17.72 51.0199 18.35L52.7699 16.64C51.1899 15.4 49.2699 14.75 47.1899 14.75C43.6799 14.75 40.5099 16.7 38.9299 19.85C38.2799 21.16 37.9399 22.56 37.9399 24C37.9499 25.41 38.2599 26.77 38.8799 28.05Z" fill="#3B78DC"/>
<path d="M72.984 29.692C71.928 29.692 71.0053 29.452 70.216 28.972C69.4267 28.492 68.8133 27.8253 68.376 26.972C67.9387 26.108 67.72 25.1053 67.72 23.964C67.72 22.812 67.944 21.7987 68.392 20.924C68.8507 20.0387 69.496 19.3507 70.328 18.86C71.1707 18.3587 72.168 18.108 73.32 18.108C74.632 18.108 75.72 18.4227 76.584 19.052C77.448 19.6813 78.008 20.5507 78.264 21.66H75.976C75.8053 21.1373 75.496 20.732 75.048 20.444C74.6 20.1453 74.024 19.996 73.32 19.996C72.2 19.996 71.336 20.3533 70.728 21.068C70.12 21.772 69.816 22.7427 69.816 23.98C69.816 25.2173 70.1147 26.1773 70.712 26.86C71.32 27.532 72.1413 27.868 73.176 27.868C74.1893 27.868 74.952 27.596 75.464 27.052C75.9867 26.4973 76.3013 25.772 76.408 24.876H73.576V23.34H78.472V29.5H76.584L76.424 28.028C76.0613 28.5613 75.608 28.972 75.064 29.26C74.52 29.548 73.8267 29.692 72.984 29.692ZM86.351 29.692C85.231 29.692 84.2497 29.4467 83.407 28.956C82.575 28.4653 81.919 27.788 81.439 26.924C80.9697 26.0493 80.735 25.0413 80.735 23.9C80.735 22.7587 80.9697 21.756 81.439 20.892C81.919 20.0173 82.575 19.3347 83.407 18.844C84.2497 18.3533 85.231 18.108 86.351 18.108C87.4603 18.108 88.4363 18.3533 89.279 18.844C90.1217 19.3347 90.7777 20.0173 91.247 20.892C91.7163 21.756 91.951 22.7587 91.951 23.9C91.951 25.0413 91.7163 26.0493 91.247 26.924C90.7777 27.788 90.1217 28.4653 89.279 28.956C88.4363 29.4467 87.4603 29.692 86.351 29.692ZM86.351 27.852C87.4177 27.852 88.2657 27.5 88.895 26.796C89.535 26.092 89.855 25.1267 89.855 23.9C89.855 22.6733 89.535 21.708 88.895 21.004C88.2657 20.3 87.4177 19.948 86.351 19.948C85.2843 19.948 84.431 20.3 83.791 21.004C83.151 21.708 82.831 22.6733 82.831 23.9C82.831 25.1267 83.151 26.092 83.791 26.796C84.431 27.5 85.2843 27.852 86.351 27.852ZM99.6473 29.692C98.5273 29.692 97.5459 29.4467 96.7033 28.956C95.8713 28.4653 95.2153 27.788 94.7353 26.924C94.2659 26.0493 94.0313 25.0413 94.0313 23.9C94.0313 22.7587 94.2659 21.756 94.7353 20.892C95.2153 20.0173 95.8713 19.3347 96.7033 18.844C97.5459 18.3533 98.5273 18.108 99.6473 18.108C100.757 18.108 101.733 18.3533 102.575 18.844C103.418 19.3347 104.074 20.0173 104.543 20.892C105.013 21.756 105.247 22.7587 105.247 23.9C105.247 25.0413 105.013 26.0493 104.543 26.924C104.074 27.788 103.418 28.4653 102.575 28.956C101.733 29.4467 100.757 29.692 99.6473 29.692ZM99.6473 27.852C100.714 27.852 101.562 27.5 102.191 26.796C102.831 26.092 103.151 25.1267 103.151 23.9C103.151 22.6733 102.831 21.708 102.191 21.004C101.562 20.3 100.714 19.948 99.6473 19.948C98.5806 19.948 97.7273 20.3 97.0873 21.004C96.4473 21.708 96.1273 22.6733 96.1273 23.9C96.1273 25.1267 96.4473 26.092 97.0873 26.796C97.7273 27.5 98.5806 27.852 99.6473 27.852ZM112.591 29.692C111.535 29.692 110.613 29.452 109.823 28.972C109.034 28.492 108.421 27.8253 107.983 26.972C107.546 26.108 107.327 25.1053 107.327 23.964C107.327 22.812 107.551 21.7987 107.999 20.924C108.458 20.0387 109.103 19.3507 109.935 18.86C110.778 18.3587 111.775 18.108 112.927 18.108C114.239 18.108 115.327 18.4227 116.191 19.052C117.055 19.6813 117.615 20.5507 117.871 21.66H115.583C115.413 21.1373 115.103 20.732 114.655 20.444C114.207 20.1453 113.631 19.996 112.927 19.996C111.807 19.996 110.943 20.3533 110.335 21.068C109.727 21.772 109.423 22.7427 109.423 23.98C109.423 25.2173 109.722 26.1773 110.319 26.86C110.927 27.532 111.749 27.868 112.783 27.868C113.797 27.868 114.559 27.596 115.071 27.052C115.594 26.4973 115.909 25.772 116.015 24.876H113.183V23.34H118.079V29.5H116.191L116.031 28.028C115.669 28.5613 115.215 28.972 114.671 29.26C114.127 29.548 113.434 29.692 112.591 29.692ZM120.711 29.5V18.3H122.759V27.9H127.719V29.5H120.711ZM130.163 29.5V18.3H137.475V19.948H132.211V23.02H136.995V24.62H132.211V27.852H137.475V29.5H130.163Z" fill="#3B78DC"/>
<rect x="0.5" y="0.5" width="173" height="47" rx="7.5" stroke="#EFEFFD"/>
</svg>
