<svg width="325" height="75" viewBox="0 0 325 75" fill="none" xmlns="http://www.w3.org/2000/svg">
<path d="M6.16 73.08V27.256H13.456L14.352 31.8C15.376 30.392 16.72 29.1547 18.384 28.088C20.0907 27.0213 22.288 26.488 24.976 26.488C27.9627 26.488 30.6293 27.2133 32.976 28.664C35.3227 30.1147 37.1787 32.0987 38.544 34.616C39.9093 37.1333 40.592 39.992 40.592 43.192C40.592 46.392 39.9093 49.2507 38.544 51.768C37.1787 54.2427 35.3227 56.2053 32.976 57.656C30.6293 59.064 27.9627 59.768 24.976 59.768C22.5867 59.768 20.496 59.32 18.704 58.424C16.912 57.528 15.4613 56.2693 14.352 54.648V73.08H6.16ZM23.248 52.6C25.8507 52.6 28.0053 51.7253 29.712 49.976C31.4187 48.2267 32.272 45.9653 32.272 43.192C32.272 40.4187 31.4187 38.136 29.712 36.344C28.0053 34.552 25.8507 33.656 23.248 33.656C20.6027 33.656 18.4267 34.552 16.72 36.344C15.056 38.0933 14.224 40.3547 14.224 43.128C14.224 45.9013 15.056 48.184 16.72 49.976C18.4267 51.7253 20.6027 52.6 23.248 52.6ZM46.63 59V27.256H53.926L54.694 33.208C55.846 31.16 57.4033 29.5387 59.366 28.344C61.3713 27.1067 63.718 26.488 66.406 26.488V35.128H64.102C62.31 35.128 60.71 35.4053 59.302 35.96C57.894 36.5147 56.7847 37.4747 55.974 38.84C55.206 40.2053 54.822 42.104 54.822 44.536V59H46.63ZM85.3945 59.768C82.3225 59.768 79.5492 59.064 77.0745 57.656C74.6425 56.248 72.7012 54.3067 71.2505 51.832C69.8425 49.3147 69.1385 46.4133 69.1385 43.128C69.1385 39.8427 69.8638 36.9627 71.3145 34.488C72.7652 31.9707 74.7065 30.008 77.1385 28.6C79.6132 27.192 82.3865 26.488 85.4585 26.488C88.4878 26.488 91.2185 27.192 93.6505 28.6C96.1252 30.008 98.0665 31.9707 99.4745 34.488C100.925 36.9627 101.651 39.8427 101.651 43.128C101.651 46.4133 100.925 49.3147 99.4745 51.832C98.0665 54.3067 96.1252 56.248 93.6505 57.656C91.1758 59.064 88.4238 59.768 85.3945 59.768ZM85.3945 52.664C87.5278 52.664 89.3838 51.8747 90.9625 50.296C92.5412 48.6747 93.3305 46.2853 93.3305 43.128C93.3305 39.9707 92.5412 37.6027 90.9625 36.024C89.3838 34.4027 87.5492 33.592 85.4585 33.592C83.2825 33.592 81.4052 34.4027 79.8265 36.024C78.2905 37.6027 77.5225 39.9707 77.5225 43.128C77.5225 46.2853 78.2905 48.6747 79.8265 50.296C81.4052 51.8747 83.2612 52.664 85.3945 52.664ZM107.695 59V27.256H114.927L115.631 31.544C116.655 30.008 117.999 28.792 119.663 27.896C121.37 26.9573 123.332 26.488 125.551 26.488C130.458 26.488 133.935 28.3867 135.983 32.184C137.135 30.4347 138.671 29.048 140.591 28.024C142.554 27 144.687 26.488 146.991 26.488C151.13 26.488 154.308 27.7253 156.527 30.2C158.746 32.6747 159.855 36.3013 159.855 41.08V59H151.663V41.848C151.663 39.1173 151.13 37.0267 150.063 35.576C149.039 34.1253 147.439 33.4 145.263 33.4C143.044 33.4 141.252 34.2107 139.887 35.832C138.564 37.4533 137.903 39.7147 137.903 42.616V59H129.711V41.848C129.711 39.1173 129.178 37.0267 128.111 35.576C127.044 34.1253 125.402 33.4 123.183 33.4C121.007 33.4 119.236 34.2107 117.871 35.832C116.548 37.4533 115.887 39.7147 115.887 42.616V59H107.695ZM166.353 73.08V27.256H173.649L174.545 31.8C175.569 30.392 176.913 29.1547 178.577 28.088C180.283 27.0213 182.481 26.488 185.169 26.488C188.155 26.488 190.822 27.2133 193.169 28.664C195.515 30.1147 197.371 32.0987 198.737 34.616C200.102 37.1333 200.785 39.992 200.785 43.192C200.785 46.392 200.102 49.2507 198.737 51.768C197.371 54.2427 195.515 56.2053 193.169 57.656C190.822 59.064 188.155 59.768 185.169 59.768C182.779 59.768 180.689 59.32 178.897 58.424C177.105 57.528 175.654 56.2693 174.545 54.648V73.08H166.353ZM183.441 52.6C186.043 52.6 188.198 51.7253 189.905 49.976C191.611 48.2267 192.465 45.9653 192.465 43.192C192.465 40.4187 191.611 38.136 189.905 36.344C188.198 34.552 186.043 33.656 183.441 33.656C180.795 33.656 178.619 34.552 176.913 36.344C175.249 38.0933 174.417 40.3547 174.417 43.128C174.417 45.9013 175.249 48.184 176.913 49.976C178.619 51.7253 180.795 52.6 183.441 52.6ZM219.717 59C216.389 59 213.722 58.1893 211.717 56.568C209.711 54.9467 208.709 52.0667 208.709 47.928V34.104H203.269V27.256H208.709L209.669 18.744H216.901V27.256H225.477V34.104H216.901V47.992C216.901 49.528 217.221 50.5947 217.861 51.192C218.543 51.7467 219.695 52.024 221.317 52.024H225.285V59H219.717Z" fill="#4A4A68"/>
<path d="M231.23 59V27.256H238.462L239.166 31.544C240.19 30.008 241.534 28.792 243.198 27.896C244.905 26.9573 246.867 26.488 249.086 26.488C253.993 26.488 257.47 28.3867 259.518 32.184C260.67 30.4347 262.206 29.048 264.126 28.024C266.089 27 268.222 26.488 270.526 26.488C274.665 26.488 277.843 27.7253 280.062 30.2C282.281 32.6747 283.39 36.3013 283.39 41.08V59H275.198V41.848C275.198 39.1173 274.665 37.0267 273.598 35.576C272.574 34.1253 270.974 33.4 268.798 33.4C266.579 33.4 264.787 34.2107 263.422 35.832C262.099 37.4533 261.438 39.7147 261.438 42.616V59H253.246V41.848C253.246 39.1173 252.713 37.0267 251.646 35.576C250.579 34.1253 248.937 33.4 246.718 33.4C244.542 33.4 242.771 34.2107 241.406 35.832C240.083 37.4533 239.422 39.7147 239.422 42.616V59H231.23ZM305.312 59.768C302.112 59.768 299.274 59.0853 296.8 57.72C294.325 56.3547 292.384 54.4347 290.976 51.96C289.568 49.4853 288.864 46.6267 288.864 43.384C288.864 40.0987 289.546 37.176 290.912 34.616C292.32 32.056 294.24 30.072 296.672 28.664C299.146 27.2133 302.048 26.488 305.376 26.488C308.49 26.488 311.242 27.1707 313.632 28.536C316.021 29.9013 317.877 31.7787 319.2 34.168C320.565 36.5147 321.248 39.1387 321.248 42.04C321.248 42.5093 321.226 43 321.184 43.512C321.184 44.024 321.162 44.5573 321.12 45.112H296.992C297.162 47.5867 298.016 49.528 299.552 50.936C301.13 52.344 303.029 53.048 305.248 53.048C306.912 53.048 308.298 52.6853 309.408 51.96C310.56 51.192 311.413 50.2107 311.968 49.016H320.288C319.69 51.0213 318.688 52.856 317.28 54.52C315.914 56.1413 314.208 57.4213 312.16 58.36C310.154 59.2987 307.872 59.768 305.312 59.768ZM305.376 33.144C303.37 33.144 301.6 33.72 300.064 34.872C298.528 35.9813 297.546 37.688 297.12 39.992H312.928C312.8 37.9013 312.032 36.2373 310.624 35C309.216 33.7627 307.466 33.144 305.376 33.144Z" fill="url(#paint0_linear_294_1112)"/>
<defs>
<linearGradient id="paint0_linear_294_1112" x1="194.5" y1="48" x2="334.5" y2="37" gradientUnits="userSpaceOnUse">
<stop stop-color="#5EFFF5" stop-opacity="0.75"/>
<stop offset="0.475164" stop-color="#7AA4FF" stop-opacity="0.75"/>
<stop offset="1" stop-color="#FFA5C0" stop-opacity="0.75"/>
</linearGradient>
</defs>
</svg>
