<svg width="40" height="40" viewBox="0 0 40 40" fill="none" xmlns="http://www.w3.org/2000/svg">
<path d="M32.1 32.75C31.4167 32.75 30.85 32.1833 30.85 31.5V11.8333C30.85 10.15 30.5 9.58331 28.3833 9.58331H26.65C24.5333 9.58331 24.1833 10.15 24.1833 11.8333V31.5C24.1833 32.1833 23.6167 32.75 22.9333 32.75C22.25 32.75 21.6833 32.1833 21.6833 31.5V11.8333C21.6833 8.63331 23.3167 7.08331 26.65 7.08331H28.3833C31.7333 7.08331 33.35 8.63331 33.35 11.8333V31.5C33.35 32.1833 32.7833 32.75 32.1 32.75Z" fill="#6866DB" fill-opacity="0.5"/>
<path d="M17.9333 32.75C17.25 32.75 16.6833 32.1834 16.6833 31.5V20.1667C16.6833 18.4834 16.3333 17.9167 14.2167 17.9167H12.4833C10.3667 17.9167 10.0167 18.4834 10.0167 20.1667V31.5C10.0167 32.1834 9.45 32.75 8.76667 32.75C8.08333 32.75 7.51667 32.1834 7.51667 31.5V20.1667C7.51667 16.9667 9.15 15.4167 12.4833 15.4167H14.2167C17.5667 15.4167 19.1833 16.9667 19.1833 20.1667V31.5C19.1833 32.1834 18.6167 32.75 17.9333 32.75Z" fill="#6866DB" fill-opacity="0.5"/>
<path d="M36.6667 32.9167H3.33333C2.65 32.9167 2.08333 32.35 2.08333 31.6667C2.08333 30.9834 2.63333 30.4167 3.33333 30.4167H36.6667C37.35 30.4167 37.9167 30.9834 37.9167 31.6667C37.9167 32.35 37.3667 32.9167 36.6667 32.9167Z" fill="#6866DB" fill-opacity="0.5"/>
</svg>
