<svg width="25" height="24" viewBox="0 0 25 24" fill="none" xmlns="http://www.w3.org/2000/svg">
<path d="M11.9 22.75H8.1C3.71 22.75 1.75 20.79 1.75 16.4V12.6C1.75 8.21 3.71 6.25 8.1 6.25H11.1C11.51 6.25 11.85 6.59 11.85 7C11.85 7.41 11.51 7.75 11.1 7.75H8.1C4.52 7.75 3.25 9.02 3.25 12.6V16.4C3.25 19.98 4.52 21.25 8.1 21.25H11.9C15.48 21.25 16.75 19.98 16.75 16.4V13.4C16.75 12.99 17.09 12.65 17.5 12.65C17.91 12.65 18.25 12.99 18.25 13.4V16.4C18.25 20.79 16.29 22.75 11.9 22.75Z" fill="#EFEFFD"/>
<path d="M17.5 14.15H14.3C11.49 14.15 10.35 13.01 10.35 10.2V6.99999C10.35 6.69999 10.53 6.41999 10.81 6.30999C11.09 6.18999 11.41 6.25999 11.63 6.46999L18.03 12.87C18.24 13.08 18.31 13.41 18.19 13.69C18.08 13.97 17.8 14.15 17.5 14.15ZM11.85 8.80999V10.2C11.85 12.19 12.31 12.65 14.3 12.65H15.69L11.85 8.80999Z" fill="#EFEFFD"/>
<path d="M16.1 2.75H12.1C11.69 2.75 11.35 2.41 11.35 2C11.35 1.59 11.69 1.25 12.1 1.25H16.1C16.51 1.25 16.85 1.59 16.85 2C16.85 2.41 16.51 2.75 16.1 2.75Z" fill="#EFEFFD"/>
<path d="M7.5 5.75C7.09 5.75 6.75 5.41 6.75 5C6.75 2.93 8.43 1.25 10.5 1.25H13.12C13.53 1.25 13.87 1.59 13.87 2C13.87 2.41 13.53 2.75 13.12 2.75H10.5C9.26 2.75 8.25 3.76 8.25 5C8.25 5.41 7.91 5.75 7.5 5.75Z" fill="#EFEFFD"/>
<path d="M19.6899 17.75C19.2799 17.75 18.9399 17.41 18.9399 17C18.9399 16.59 19.2799 16.25 19.6899 16.25C20.8299 16.25 21.7499 15.32 21.7499 14.19V8C21.7499 7.59 22.0899 7.25 22.4999 7.25C22.9099 7.25 23.2499 7.59 23.2499 8V14.19C23.2499 16.15 21.6499 17.75 19.6899 17.75Z" fill="#EFEFFD"/>
<path d="M22.5 8.74999H19.5C16.84 8.74999 15.75 7.65999 15.75 4.99999V1.99999C15.75 1.69999 15.93 1.41999 16.21 1.30999C16.49 1.18999 16.81 1.25999 17.03 1.46999L23.03 7.46999C23.24 7.67999 23.31 8.00999 23.19 8.28999C23.08 8.56999 22.8 8.74999 22.5 8.74999ZM17.25 3.80999V4.99999C17.25 6.82999 17.67 7.24999 19.5 7.24999H20.69L17.25 3.80999Z" fill="#EFEFFD"/>
</svg>
