<svg width="40" height="40" viewBox="0 0 40 40" fill="none" xmlns="http://www.w3.org/2000/svg">
<path d="M26.6667 37.9167H5.00004C3.40004 37.9167 2.08337 36.6 2.08337 35V13.3333C2.08337 5.96668 5.96671 2.08334 13.3334 2.08334H26.6667C34.0334 2.08334 37.9167 5.96668 37.9167 13.3333V26.6667C37.9167 34.0333 34.0334 37.9167 26.6667 37.9167ZM13.3334 4.58334C7.36671 4.58334 4.58337 7.36668 4.58337 13.3333V35C4.58337 35.2333 4.76671 35.4167 5.00004 35.4167H26.6667C32.6334 35.4167 35.4167 32.6333 35.4167 26.6667V13.3333C35.4167 7.36668 32.6334 4.58334 26.6667 4.58334H13.3334Z" fill="#6866DB"/>
<path d="M13.2496 29.5833C12.4662 29.5833 11.7496 29.3 11.2162 28.7833C10.5829 28.15 10.2995 27.25 10.4495 26.2833L10.9162 22.9833C11.0162 22.2667 11.4662 21.35 11.9829 20.8333L20.6329 12.1833C23.5996 9.21666 26.1829 10.55 27.8162 12.1833C29.0996 13.4667 29.6829 14.8167 29.5496 16.1667C29.4496 17.2667 28.8662 18.3 27.8162 19.3667L19.1662 28.0167C18.6496 28.5333 17.7495 28.9833 17.0162 29.1L13.7162 29.5667C13.5662 29.5667 13.3996 29.5833 13.2496 29.5833ZM24.2162 12.9167C23.5996 12.9167 23.0496 13.3167 22.4162 13.9333L13.7662 22.5833C13.6329 22.7167 13.4329 23.1333 13.3996 23.3167L12.9329 26.6167C12.9162 26.7833 12.9329 26.9333 12.9995 27C13.0662 27.0667 13.2162 27.0833 13.3829 27.0667L16.6829 26.6C16.8829 26.5667 17.2829 26.3667 17.4162 26.2333L26.0662 17.5833C26.6996 16.95 27.0329 16.4 27.0829 15.9C27.1329 15.3333 26.7996 14.6667 26.0662 13.9333C25.3329 13.2333 24.7496 12.9167 24.2162 12.9167Z" fill="#6866DB"/>
<path d="M25.6997 20.9666C25.583 20.9666 25.4663 20.9499 25.3663 20.9166C22.3496 20.0666 19.933 17.6666 19.083 14.6333C18.8997 13.9666 19.283 13.2833 19.9496 13.0833C20.6163 12.8999 21.2997 13.2833 21.483 13.9499C22.0997 16.1333 23.8496 17.8833 26.033 18.4999C26.6996 18.6833 27.083 19.3833 26.8997 20.0499C26.7497 20.5999 26.2497 20.9666 25.6997 20.9666Z" fill="#6866DB"/>
</svg>
