<svg width="41" height="40" viewBox="0 0 41 40" fill="none" xmlns="http://www.w3.org/2000/svg">
<path d="M13.8333 37.1998C13.3667 37.1998 12.8833 37.0832 12.45 36.8499C11.5 36.3499 10.9167 35.3498 10.9167 34.2831V31.9166C5.88333 31.3999 2.58333 27.6998 2.58333 22.3998V12.3999C2.58333 6.66657 6.43333 2.81657 12.1667 2.81657H28.8333C34.5667 2.81657 38.4167 6.66657 38.4167 12.3999V22.3998C38.4167 28.1331 34.5667 31.9831 28.8333 31.9831H22.55L15.45 36.7166C14.9666 37.0333 14.4 37.1998 13.8333 37.1998ZM12.1667 5.29989C7.86667 5.29989 5.08333 8.08322 5.08333 12.3832V22.3833C5.08333 26.6833 7.86667 29.4667 12.1667 29.4667C12.85 29.4667 13.4167 30.0333 13.4167 30.7167V34.2667C13.4167 34.4833 13.55 34.5833 13.6333 34.6333C13.7167 34.6833 13.8834 34.7333 14.0667 34.6166L21.4834 29.6833C21.6834 29.55 21.9334 29.4667 22.1834 29.4667H28.85C33.15 29.4667 35.9334 26.6833 35.9334 22.3833V12.3832C35.9334 8.08322 33.15 5.29989 28.85 5.29989H12.1667Z" fill="#6866DB" fill-opacity="0.5"/>
<path d="M20.4997 20.1833C19.8164 20.1833 19.2497 19.6166 19.2497 18.9333V18.5834C19.2497 16.65 20.6663 15.7 21.1997 15.3333C21.8163 14.9167 22.0163 14.6334 22.0163 14.2C22.0163 13.3667 21.333 12.6833 20.4997 12.6833C19.6664 12.6833 18.9831 13.3667 18.9831 14.2C18.9831 14.8834 18.4164 15.45 17.7331 15.45C17.0497 15.45 16.4831 14.8834 16.4831 14.2C16.4831 11.9834 18.283 10.1833 20.4997 10.1833C22.7164 10.1833 24.5163 11.9834 24.5163 14.2C24.5163 16.1 23.1164 17.05 22.5997 17.4C21.9497 17.8333 21.7497 18.1167 21.7497 18.5834V18.9333C21.7497 19.6333 21.183 20.1833 20.4997 20.1833Z" fill="#6866DB" fill-opacity="0.5"/>
<path d="M20.5 24.3333C19.8 24.3333 19.25 23.7666 19.25 23.0833C19.25 22.4 19.8167 21.8333 20.5 21.8333C21.1833 21.8333 21.75 22.4 21.75 23.0833C21.75 23.7666 21.2 24.3333 20.5 24.3333Z" fill="#6866DB" fill-opacity="0.5"/>
</svg>
