<svg width="40" height="40" viewBox="0 0 40 40" fill="none" xmlns="http://www.w3.org/2000/svg">
<path d="M20 31.25C19.3167 31.25 18.75 30.6833 18.75 30V25C18.75 24.3167 19.3167 23.75 20 23.75C20.6833 23.75 21.25 24.3167 21.25 25V30C21.25 30.6833 20.6833 31.25 20 31.25Z" fill="#6866DB"/>
<path d="M29.3333 37.6H10.6667C7.63333 37.6 4.86667 35.2667 4.36667 32.2834L2.15 19C1.78333 16.9334 2.8 14.2834 4.45 12.9667L16 3.7167C18.2333 1.9167 21.75 1.93336 24 3.73336L35.55 12.9667C37.1833 14.2834 38.1833 16.9334 37.85 19L35.6333 32.2667C35.1333 35.2167 32.3 37.6 29.3333 37.6ZM19.9833 4.88336C19.1 4.88336 18.2167 5.15003 17.5667 5.6667L6.01667 14.9334C5.08333 15.6834 4.41667 17.4167 4.61667 18.6L6.83333 31.8667C7.13333 33.6167 8.88333 35.1 10.6667 35.1H29.3333C31.1167 35.1 32.8667 33.6167 33.1667 31.85L35.3833 18.5834C35.5667 17.4167 34.9 15.65 33.9833 14.9167L22.4333 5.68336C21.7667 5.15003 20.8667 4.88336 19.9833 4.88336Z" fill="#6866DB"/>
</svg>
