<svg width="41" height="40" viewBox="0 0 41 40" fill="none" xmlns="http://www.w3.org/2000/svg">
<path d="M29.5667 25.6167C29.25 25.6167 28.9333 25.5 28.6833 25.25C28.2 24.7667 28.2 23.9667 28.6833 23.4833L32.0667 20.1L28.6833 16.7167C28.2 16.2333 28.2 15.4333 28.6833 14.95C29.1667 14.4667 29.9667 14.4667 30.45 14.95L34.7167 19.2167C35.2 19.7 35.2 20.5 34.7167 20.9833L30.45 25.25C30.2 25.5 29.8833 25.6167 29.5667 25.6167Z" fill="#6866DB" fill-opacity="0.5"/>
<path d="M33.7167 21.35H16.7667C16.0833 21.35 15.5167 20.7833 15.5167 20.1C15.5167 19.4167 16.0833 18.85 16.7667 18.85H33.7167C34.4 18.85 34.9667 19.4167 34.9667 20.1C34.9667 20.7833 34.4 21.35 33.7167 21.35Z" fill="#6866DB" fill-opacity="0.5"/>
<path d="M20.1 34.5833C11.5167 34.5833 5.51666 28.5833 5.51666 20C5.51666 11.4167 11.5167 5.41667 20.1 5.41667C20.7833 5.41667 21.35 5.98334 21.35 6.66667C21.35 7.35001 20.7833 7.91667 20.1 7.91667C12.9833 7.91667 8.01666 12.8833 8.01666 20C8.01666 27.1167 12.9833 32.0833 20.1 32.0833C20.7833 32.0833 21.35 32.65 21.35 33.3333C21.35 34.0167 20.7833 34.5833 20.1 34.5833Z" fill="#6866DB" fill-opacity="0.5"/>
</svg>
