<svg width="40" height="40" viewBox="0 0 40 40" fill="none" xmlns="http://www.w3.org/2000/svg">
<path d="M31.6667 14.5833C28.2167 14.5833 25.4167 11.7833 25.4167 8.33334C25.4167 4.88334 28.2167 2.08334 31.6667 2.08334C35.1167 2.08334 37.9167 4.88334 37.9167 8.33334C37.9167 11.7833 35.1167 14.5833 31.6667 14.5833ZM31.6667 4.58334C29.6 4.58334 27.9167 6.26668 27.9167 8.33334C27.9167 10.4 29.6 12.0833 31.6667 12.0833C33.7334 12.0833 35.4167 10.4 35.4167 8.33334C35.4167 6.26668 33.7334 4.58334 31.6667 4.58334Z" fill="#6866DB"/>
<path d="M25 37.9167H15C5.94998 37.9167 2.08331 34.05 2.08331 25V15C2.08331 5.95001 5.94998 2.08334 15 2.08334H23.3333C24.0166 2.08334 24.5833 2.65001 24.5833 3.33334C24.5833 4.01668 24.0166 4.58334 23.3333 4.58334H15C7.31665 4.58334 4.58331 7.31668 4.58331 15V25C4.58331 32.6833 7.31665 35.4167 15 35.4167H25C32.6833 35.4167 35.4166 32.6833 35.4166 25V16.6667C35.4166 15.9833 35.9833 15.4167 36.6666 15.4167C37.35 15.4167 37.9166 15.9833 37.9166 16.6667V25C37.9166 34.05 34.05 37.9167 25 37.9167Z" fill="#6866DB"/>
</svg>
