<svg width="40" height="40" viewBox="0 0 40 40" fill="none" xmlns="http://www.w3.org/2000/svg">
<path d="M15.266 19.3666C15.216 19.3666 15.1827 19.3666 15.1327 19.3666C15.0494 19.35 14.9327 19.35 14.8327 19.3666C9.99935 19.2166 6.34935 15.4166 6.34935 10.7333C6.34935 5.96665 10.2327 2.08331 14.9994 2.08331C19.766 2.08331 23.6493 5.96665 23.6493 10.7333C23.6327 15.4166 19.966 19.2166 15.316 19.3666C15.2993 19.3666 15.2827 19.3666 15.266 19.3666ZM14.9994 4.58331C11.616 4.58331 8.84935 7.34998 8.84935 10.7333C8.84935 14.0666 11.4493 16.75 14.766 16.8666C14.866 16.85 15.0827 16.85 15.2994 16.8666C18.566 16.7166 21.1327 14.0333 21.1493 10.7333C21.1493 7.34998 18.3827 4.58331 14.9994 4.58331Z" fill="#6866DB" fill-opacity="0.5"/>
<path d="M27.566 19.5834C27.516 19.5834 27.466 19.5834 27.416 19.5667C26.7327 19.6334 26.0327 19.15 25.966 18.4667C25.8993 17.7834 26.316 17.1667 26.9993 17.0834C27.1993 17.0667 27.416 17.0667 27.5993 17.0667C30.0327 16.9334 31.9327 14.9334 31.9327 12.4834C31.9327 9.95002 29.8827 7.90002 27.3493 7.90002C26.666 7.91669 26.0993 7.35002 26.0993 6.66669C26.0993 5.98335 26.666 5.41669 27.3493 5.41669C31.2493 5.41669 34.4327 8.60002 34.4327 12.5C34.4327 16.3334 31.4327 19.4334 27.616 19.5834C27.5993 19.5834 27.5827 19.5834 27.566 19.5834Z" fill="#6866DB" fill-opacity="0.5"/>
<path d="M15.2827 37.5834C12.016 37.5834 8.73268 36.75 6.24935 35.0834C3.93268 33.55 2.66602 31.45 2.66602 29.1667C2.66602 26.8834 3.93268 24.7667 6.24935 23.2167C11.2493 19.9 19.3493 19.9 24.316 23.2167C26.616 24.75 27.8993 26.85 27.8993 29.1334C27.8993 31.4167 26.6327 33.5334 24.316 35.0834C21.816 36.75 18.5493 37.5834 15.2827 37.5834ZM7.63268 25.3167C6.03268 26.3834 5.16602 27.75 5.16602 29.1834C5.16602 30.6 6.04935 31.9667 7.63268 33.0167C11.7827 35.8 18.7827 35.8 22.9327 33.0167C24.5327 31.95 25.3993 30.5834 25.3993 29.15C25.3993 27.7334 24.516 26.3667 22.9327 25.3167C18.7827 22.55 11.7827 22.55 7.63268 25.3167Z" fill="#6866DB" fill-opacity="0.5"/>
<path d="M30.566 34.5833C29.9827 34.5833 29.466 34.1833 29.3494 33.5833C29.216 32.9 29.6494 32.25 30.316 32.1C31.366 31.8833 32.3327 31.4666 33.0827 30.8833C34.0327 30.1666 34.5493 29.2666 34.5493 28.3166C34.5493 27.3666 34.0327 26.4666 33.0994 25.7666C32.366 25.2 31.4493 24.8 30.366 24.55C29.6993 24.4 29.266 23.7333 29.416 23.05C29.566 22.3833 30.2327 21.95 30.916 22.1C32.3493 22.4166 33.5994 22.9833 34.616 23.7666C36.166 24.9333 37.0493 26.5833 37.0493 28.3166C37.0493 30.05 36.1494 31.7 34.5993 32.8833C33.566 33.6833 32.266 34.2666 30.8327 34.55C30.7327 34.5833 30.6494 34.5833 30.566 34.5833Z" fill="#6866DB" fill-opacity="0.5"/>
</svg>
