<svg width="40" height="40" viewBox="0 0 40 40" fill="none" xmlns="http://www.w3.org/2000/svg">
<path d="M28.1166 31.7666H14.7833C9.49995 31.7666 5.19995 27.4666 5.19995 22.1833C5.19995 16.9 9.49995 12.6 14.7833 12.6H33.1166C33.7999 12.6 34.3666 13.1666 34.3666 13.85C34.3666 14.5333 33.7999 15.1 33.1166 15.1H14.7833C10.8833 15.1 7.69995 18.2833 7.69995 22.1833C7.69995 26.0833 10.8833 29.2666 14.7833 29.2666H28.1166C28.7999 29.2666 29.3666 29.8333 29.3666 30.5166C29.3666 31.2 28.8166 31.7666 28.1166 31.7666Z" fill="#8C8CA2"/>
<path d="M29.2833 19.2667C28.9666 19.2667 28.65 19.15 28.4 18.9C27.9166 18.4167 27.9166 17.6167 28.4 17.1333L31.7833 13.75L28.4 10.3667C27.9166 9.88332 27.9166 9.08332 28.4 8.59999C28.8833 8.11665 29.6833 8.11665 30.1666 8.59999L34.4333 12.8667C34.9166 13.35 34.9166 14.15 34.4333 14.6333L30.1666 18.9C29.9166 19.15 29.6 19.2667 29.2833 19.2667Z" fill="#8C8CA2"/>
</svg>
