<svg width="40" height="40" viewBox="0 0 40 40" fill="none" xmlns="http://www.w3.org/2000/svg">
<path d="M19.9996 37.9167C18.0496 37.9167 16.2329 37.1666 14.8663 35.8L4.21626 25.15C2.84959 23.7834 2.09961 21.95 2.09961 20.0167C2.09961 18.0834 2.84959 16.25 4.21626 14.8833L14.8663 4.2333C16.2329 2.86663 18.0663 2.1167 19.9996 2.1167C21.9329 2.1167 23.7662 2.86663 25.1329 4.2333L35.7829 14.8833C37.1496 16.25 37.8996 18.0834 37.8996 20.0167C37.8996 21.95 37.1496 23.7834 35.7829 25.15L25.1329 35.8C23.7662 37.1666 21.9496 37.9167 19.9996 37.9167ZM19.9996 4.58333C18.7163 4.58333 17.5163 5.08336 16.6329 5.9667L5.98292 16.6166C5.08292 17.5166 4.59961 18.7167 4.59961 19.9833C4.59961 21.25 5.09959 22.4667 5.98292 23.35L16.6329 34C18.4163 35.7834 21.5829 35.7834 23.3662 34L34.0163 23.35C34.9163 22.45 35.3996 21.2667 35.3996 19.9833C35.3996 18.7 34.8996 17.5 34.0163 16.6166L23.3662 5.9667C22.4829 5.08336 21.2829 4.58333 19.9996 4.58333Z" fill="#6866DB" fill-opacity="0.5"/>
<path d="M29.5832 30.8333C29.2666 30.8333 28.9499 30.7167 28.6999 30.4667L9.53323 11.3C9.0499 10.8167 9.0499 10.0166 9.53323 9.53325C10.0166 9.04991 10.8166 9.04991 11.2999 9.53325L30.4666 28.6999C30.9499 29.1832 30.9499 29.9833 30.4666 30.4667C30.2166 30.7167 29.8999 30.8333 29.5832 30.8333Z" fill="#6866DB" fill-opacity="0.5"/>
<path d="M10.4166 30.8333C10.0999 30.8333 9.78323 30.7167 9.53323 30.4667C9.0499 29.9833 9.0499 29.1832 9.53323 28.6999L28.6999 9.53325C29.1832 9.04991 29.9832 9.04991 30.4666 9.53325C30.9499 10.0166 30.9499 10.8167 30.4666 11.3L11.2999 30.4667C11.0499 30.7167 10.7332 30.8333 10.4166 30.8333Z" fill="#6866DB" fill-opacity="0.5"/>
</svg>
