<svg width="40" height="40" viewBox="0 0 40 40" fill="none" xmlns="http://www.w3.org/2000/svg">
<path d="M18.3333 34.5833C9.36665 34.5833 2.08331 27.3 2.08331 18.3333C2.08331 9.36668 9.36665 2.08334 18.3333 2.08334C27.3 2.08334 34.5833 9.36668 34.5833 18.3333C34.5833 27.3 27.3 34.5833 18.3333 34.5833ZM18.3333 4.58334C10.75 4.58334 4.58331 10.75 4.58331 18.3333C4.58331 25.9167 10.75 32.0833 18.3333 32.0833C25.9166 32.0833 32.0833 25.9167 32.0833 18.3333C32.0833 10.75 25.9166 4.58334 18.3333 4.58334Z" fill="#6866DB"/>
<path d="M33.6 37.9833C33.4667 37.9833 33.3334 37.9667 33.2167 37.95C32.4334 37.85 31.0167 37.3167 30.2167 34.9333C29.8 33.6833 29.95 32.4333 30.6334 31.4833C31.3167 30.5333 32.4667 30 33.7834 30C35.4834 30 36.8167 30.65 37.4167 31.8C38.0167 32.95 37.85 34.4167 36.9 35.8333C35.7167 37.6167 34.4334 37.9833 33.6 37.9833ZM32.6 34.15C32.8834 35.0167 33.2834 35.45 33.55 35.4833C33.8167 35.5167 34.3167 35.2 34.8334 34.45C35.3167 33.7333 35.35 33.2167 35.2334 32.9833C35.1167 32.75 34.65 32.5 33.7834 32.5C33.2667 32.5 32.8834 32.6667 32.6667 32.95C32.4667 33.2333 32.4334 33.6667 32.6 34.15Z" fill="#6866DB"/>
</svg>
