<svg width="40" height="40" viewBox="0 0 40 40" fill="none" xmlns="http://www.w3.org/2000/svg">
<path d="M20 37.7166C18.8833 37.7166 17.75 37.4666 16.8667 36.95L7.7 31.6666C3.96667 29.15 3.73333 28.7666 3.73333 24.8166V15.1833C3.73333 11.2333 3.95 10.85 7.61667 8.36665L16.85 3.03331C18.6 2.01665 21.35 2.01665 23.1 3.03331L32.3 8.33331C36.0333 10.85 36.2667 11.2333 36.2667 15.1833V24.8C36.2667 28.75 36.05 29.1333 32.3833 31.6166L23.15 36.95C22.25 37.4666 21.1167 37.7166 20 37.7166ZM20 4.78331C19.3 4.78331 18.6167 4.91665 18.1333 5.19998L8.96667 10.5C6.25 12.3333 6.25 12.3333 6.25 15.1833V24.8C6.25 27.65 6.25 27.65 9.03333 29.5333L18.1333 34.7833C19.1167 35.35 20.9 35.35 21.8833 34.7833L31.05 29.4833C33.75 27.65 33.75 27.65 33.75 24.8V15.1833C33.75 12.3333 33.75 12.3333 30.9667 10.45L21.8667 5.19998C21.3833 4.91665 20.7 4.78331 20 4.78331Z" fill="#6866DB" fill-opacity="0.5"/>
<path d="M20 26.25C16.55 26.25 13.75 23.45 13.75 20C13.75 16.55 16.55 13.75 20 13.75C23.45 13.75 26.25 16.55 26.25 20C26.25 23.45 23.45 26.25 20 26.25ZM20 16.25C17.9333 16.25 16.25 17.9333 16.25 20C16.25 22.0667 17.9333 23.75 20 23.75C22.0667 23.75 23.75 22.0667 23.75 20C23.75 17.9333 22.0667 16.25 20 16.25Z" fill="#6866DB" fill-opacity="0.5"/>
</svg>
