<svg width="40" height="40" viewBox="0 0 40 40" fill="none" xmlns="http://www.w3.org/2000/svg">
<path d="M26.6667 37.9166H13.3333C7.25 37.9166 3.75 34.4166 3.75 28.3333V11.6666C3.75 5.58331 7.25 2.08331 13.3333 2.08331H26.6667C32.75 2.08331 36.25 5.58331 36.25 11.6666V28.3333C36.25 34.4166 32.75 37.9166 26.6667 37.9166ZM13.3333 4.58331C8.56667 4.58331 6.25 6.89998 6.25 11.6666V28.3333C6.25 33.1 8.56667 35.4166 13.3333 35.4166H26.6667C31.4333 35.4166 33.75 33.1 33.75 28.3333V11.6666C33.75 6.89998 31.4333 4.58331 26.6667 4.58331H13.3333Z" fill="#6866DB" fill-opacity="0.5"/>
<path d="M30.8333 15.4167H27.5C24.9667 15.4167 22.9167 13.3667 22.9167 10.8333V7.5C22.9167 6.81667 23.4833 6.25 24.1667 6.25C24.85 6.25 25.4167 6.81667 25.4167 7.5V10.8333C25.4167 11.9833 26.35 12.9167 27.5 12.9167H30.8333C31.5167 12.9167 32.0833 13.4833 32.0833 14.1667C32.0833 14.85 31.5167 15.4167 30.8333 15.4167Z" fill="#6866DB" fill-opacity="0.5"/>
<path d="M20 22.9167H13.3333C12.65 22.9167 12.0833 22.35 12.0833 21.6667C12.0833 20.9834 12.65 20.4167 13.3333 20.4167H20C20.6833 20.4167 21.25 20.9834 21.25 21.6667C21.25 22.35 20.6833 22.9167 20 22.9167Z" fill="#6866DB" fill-opacity="0.5"/>
<path d="M26.6667 29.5833H13.3333C12.65 29.5833 12.0833 29.0166 12.0833 28.3333C12.0833 27.65 12.65 27.0833 13.3333 27.0833H26.6667C27.35 27.0833 27.9167 27.65 27.9167 28.3333C27.9167 29.0166 27.35 29.5833 26.6667 29.5833Z" fill="#6866DB" fill-opacity="0.5"/>
</svg>
