<svg width="40" height="40" viewBox="0 0 40 40" fill="none" xmlns="http://www.w3.org/2000/svg">
<path d="M25.2166 31.7666H11.8833C11.2 31.7666 10.6333 31.2 10.6333 30.5166C10.6333 29.8333 11.2 29.2666 11.8833 29.2666H25.2166C29.1166 29.2666 32.3 26.0833 32.3 22.1833C32.3 18.2833 29.1166 15.1 25.2166 15.1H6.8833C6.19997 15.1 5.6333 14.5333 5.6333 13.85C5.6333 13.1666 6.19997 12.6 6.8833 12.6H25.2166C30.5 12.6 34.8 16.9 34.8 22.1833C34.8 27.4666 30.5 31.7666 25.2166 31.7666Z" fill="#8C8CA2"/>
<path d="M10.7167 19.2667C10.4001 19.2667 10.0834 19.15 9.83339 18.9L5.56672 14.6333C5.08339 14.15 5.08339 13.35 5.56672 12.8667L9.83339 8.59999C10.3167 8.11665 11.1167 8.11665 11.6001 8.59999C12.0834 9.08332 12.0834 9.88332 11.6001 10.3667L8.21672 13.75L11.6001 17.1333C12.0834 17.6167 12.0834 18.4167 11.6001 18.9C11.3667 19.15 11.0334 19.2667 10.7167 19.2667Z" fill="#8C8CA2"/>
</svg>
